<?xml version="1.0" encoding="UTF-8" standalone="no"?>
<!DOCTYPE svg PUBLIC "-//W3C//DTD SVG 1.1//EN" "http://www.w3.org/Graphics/SVG/1.1/DTD/svg11.dtd">
<svg width="100%" height="100%" viewBox="0 0 24 20" version="1.1" xmlns="http://www.w3.org/2000/svg" xmlns:xlink="http://www.w3.org/1999/xlink" xml:space="preserve" xmlns:serif="http://www.serif.com/" style="fill-rule:evenodd;clip-rule:evenodd;stroke-linejoin:round;stroke-miterlimit:2;">
    <path d="M0,14.052C0,12.135 0.422,10.305 1.267,8.562C2.111,6.819 3.222,5.229 4.6,3.791C6.022,2.309 7.556,1.046 9.2,0L10.467,1.765C8.867,3.028 7.556,4.227 6.533,5.359C5.556,6.449 4.689,7.865 3.933,9.608L5.867,11.307C6.889,12.135 7.578,12.941 7.933,13.726C8.289,14.51 8.467,15.316 8.467,16.144C8.467,17.451 8.111,18.431 7.4,19.085C6.689,19.695 5.733,20 4.533,20C3.867,20 3.222,19.913 2.6,19.739C2.022,19.521 1.467,19.172 0.933,18.693C0.311,17.211 0,15.665 0,14.052ZM13.533,14.052C13.533,12.135 13.956,10.305 14.8,8.562C15.644,6.819 16.756,5.229 18.133,3.791C19.556,2.309 21.089,1.046 22.733,0L24,1.765C22.4,3.028 21.089,4.227 20.067,5.359C19.089,6.449 18.222,7.865 17.467,9.608L19.4,11.307C20.422,12.135 21.111,12.941 21.467,13.726C21.822,14.51 22,15.316 22,16.144C22,17.451 21.644,18.431 20.933,19.085C20.222,19.695 19.267,20 18.067,20C17.4,20 16.756,19.913 16.133,19.739C15.556,19.521 15,19.172 14.467,18.693C13.844,17.211 13.533,15.665 13.533,14.052Z" style="fill:rgb(219,224,236);fill-rule:nonzero;"/>
</svg>
