<svg width="42" height="42" viewBox="0 0 42 42" fill="none" xmlns="http://www.w3.org/2000/svg">
<path d="M21 0C32.598 0 42 9.40202 42 21C42 32.598 32.598 42 21 42C9.40202 42 0 32.598 0 21C0 9.40202 9.40202 0 21 0ZM21 2C10.5066 2 2 10.5066 2 21C2 31.4934 10.5066 40 21 40C31.4934 40 40 31.4934 40 21C40 10.5066 31.4934 2 21 2ZM21 7C28.732 7 35 13.268 35 21C35 28.732 28.732 35 21 35C13.268 35 7 28.732 7 21C7 13.268 13.268 7 21 7ZM21 9C14.3726 9 9 14.3726 9 21C9 27.6274 14.3726 33 21 33C27.6274 33 33 27.6274 33 21C33 14.3726 27.6274 9 21 9ZM21 14C24.866 14 28 17.134 28 21C28 24.866 24.866 28 21 28C17.134 28 14 24.866 14 21C14 17.134 17.134 14 21 14ZM21 16C18.2386 16 16 18.2386 16 21C16 23.7614 18.2386 26 21 26C23.7614 26 26 23.7614 26 21C26 18.2386 23.7614 16 21 16Z" fill="black"/>
</svg>
